<mxfile host="app.diagrams.net" agent="Mozilla/5.0 (Windows NT 10.0; Win64; x64) AppleWebKit/537.36 (KHTML, like Gecko) Chrome/135.0.0.0 Safari/537.36" version="26.2.12">
  <diagram name="第 1 页" id="knIPtZ0YHgmLipvf_T2b">
    <mxGraphModel dx="1044" dy="562" grid="1" gridSize="10" guides="1" tooltips="1" connect="1" arrows="1" fold="1" page="1" pageScale="1" pageWidth="827" pageHeight="1169" math="0" shadow="0">
      <root>
        <mxCell id="0" />
        <mxCell id="1" parent="0" />
        <mxCell id="E2VgF8O7wM1RU6FWd8jb-1" value="&lt;font style=&quot;font-size: 18px;&quot;&gt;修改工作票&lt;/font&gt;" style="swimlane;html=1;childLayout=stackLayout;startSize=20;rounded=0;shadow=0;labelBackgroundColor=none;strokeWidth=1;fontFamily=Verdana;fontSize=8;align=center;" vertex="1" parent="1">
          <mxGeometry x="70" y="40" width="640" height="930" as="geometry" />
        </mxCell>
        <mxCell id="E2VgF8O7wM1RU6FWd8jb-2" value="接收请求" style="swimlane;html=1;startSize=20;" vertex="1" parent="E2VgF8O7wM1RU6FWd8jb-1">
          <mxGeometry y="20" width="160" height="910" as="geometry">
            <mxRectangle y="20" width="40" height="730" as="alternateBounds" />
          </mxGeometry>
        </mxCell>
        <mxCell id="E2VgF8O7wM1RU6FWd8jb-3" style="edgeStyle=orthogonalEdgeStyle;rounded=0;orthogonalLoop=1;jettySize=auto;html=1;exitX=0.5;exitY=1;exitDx=0;exitDy=0;entryX=0.5;entryY=0;entryDx=0;entryDy=0;" edge="1" parent="E2VgF8O7wM1RU6FWd8jb-2" source="E2VgF8O7wM1RU6FWd8jb-4" target="E2VgF8O7wM1RU6FWd8jb-9">
          <mxGeometry relative="1" as="geometry">
            <mxPoint x="70" y="167.5" as="targetPoint" />
          </mxGeometry>
        </mxCell>
        <mxCell id="E2VgF8O7wM1RU6FWd8jb-4" value="&lt;font style=&quot;font-size: 12px;&quot;&gt;开始&lt;/font&gt;" style="rounded=1;whiteSpace=wrap;html=1;shadow=0;labelBackgroundColor=none;strokeWidth=1;fontFamily=Verdana;fontSize=8;align=center;" vertex="1" parent="E2VgF8O7wM1RU6FWd8jb-2">
          <mxGeometry x="30" y="70" width="100" height="60" as="geometry" />
        </mxCell>
        <mxCell id="E2VgF8O7wM1RU6FWd8jb-5" style="edgeStyle=orthogonalEdgeStyle;rounded=0;orthogonalLoop=1;jettySize=auto;html=1;entryX=0.5;entryY=0;entryDx=0;entryDy=0;exitX=0.5;exitY=1;exitDx=0;exitDy=0;" edge="1" parent="E2VgF8O7wM1RU6FWd8jb-2" source="E2VgF8O7wM1RU6FWd8jb-10" target="E2VgF8O7wM1RU6FWd8jb-7">
          <mxGeometry relative="1" as="geometry">
            <mxPoint x="70" y="980" as="targetPoint" />
            <mxPoint x="70" y="440" as="sourcePoint" />
            <Array as="points">
              <mxPoint x="80" y="660" />
              <mxPoint x="80" y="660" />
            </Array>
          </mxGeometry>
        </mxCell>
        <mxCell id="E2VgF8O7wM1RU6FWd8jb-6" value="是" style="edgeLabel;html=1;align=center;verticalAlign=middle;resizable=0;points=[];" vertex="1" connectable="0" parent="E2VgF8O7wM1RU6FWd8jb-5">
          <mxGeometry x="-0.24" y="-1" relative="1" as="geometry">
            <mxPoint as="offset" />
          </mxGeometry>
        </mxCell>
        <mxCell id="E2VgF8O7wM1RU6FWd8jb-7" value="&lt;span style=&quot;font-size: 12px;&quot;&gt;失败返回&lt;/span&gt;" style="whiteSpace=wrap;html=1;fontSize=8;fontFamily=Verdana;rounded=0;shadow=0;labelBackgroundColor=none;strokeWidth=1;" vertex="1" parent="E2VgF8O7wM1RU6FWd8jb-2">
          <mxGeometry x="30" y="830" width="100" height="60" as="geometry" />
        </mxCell>
        <mxCell id="E2VgF8O7wM1RU6FWd8jb-8" style="edgeStyle=orthogonalEdgeStyle;rounded=0;orthogonalLoop=1;jettySize=auto;html=1;exitX=0.5;exitY=1;exitDx=0;exitDy=0;entryX=0.5;entryY=0;entryDx=0;entryDy=0;" edge="1" parent="E2VgF8O7wM1RU6FWd8jb-2" source="E2VgF8O7wM1RU6FWd8jb-9" target="E2VgF8O7wM1RU6FWd8jb-10">
          <mxGeometry relative="1" as="geometry">
            <mxPoint x="70" y="260" as="targetPoint" />
          </mxGeometry>
        </mxCell>
        <mxCell id="E2VgF8O7wM1RU6FWd8jb-9" value="&lt;span style=&quot;font-size: 12px;&quot;&gt;查询工作票当前状态&lt;/span&gt;" style="whiteSpace=wrap;html=1;fontSize=8;fontFamily=Verdana;rounded=0;shadow=0;labelBackgroundColor=none;strokeWidth=1;" vertex="1" parent="E2VgF8O7wM1RU6FWd8jb-2">
          <mxGeometry x="30" y="160" width="100" height="60" as="geometry" />
        </mxCell>
        <mxCell id="E2VgF8O7wM1RU6FWd8jb-10" value="&lt;span style=&quot;font-size: 12px;&quot;&gt;请求参数中票状态&lt;/span&gt;&lt;div&gt;&lt;span style=&quot;font-size: 12px;&quot;&gt;不为空且与当前票状态不一致&lt;/span&gt;&lt;/div&gt;" style="rhombus;whiteSpace=wrap;html=1;rounded=0;shadow=0;labelBackgroundColor=none;strokeWidth=1;fontFamily=Verdana;fontSize=8;align=center;" vertex="1" parent="E2VgF8O7wM1RU6FWd8jb-2">
          <mxGeometry x="30" y="260" width="100" height="75" as="geometry" />
        </mxCell>
        <mxCell id="E2VgF8O7wM1RU6FWd8jb-11" value="数据更新-1" style="swimlane;html=1;startSize=20;" vertex="1" parent="E2VgF8O7wM1RU6FWd8jb-1">
          <mxGeometry x="160" y="20" width="160" height="910" as="geometry" />
        </mxCell>
        <mxCell id="E2VgF8O7wM1RU6FWd8jb-53" style="edgeStyle=orthogonalEdgeStyle;rounded=0;orthogonalLoop=1;jettySize=auto;html=1;exitX=0.5;exitY=1;exitDx=0;exitDy=0;" edge="1" parent="E2VgF8O7wM1RU6FWd8jb-11" source="E2VgF8O7wM1RU6FWd8jb-49" target="E2VgF8O7wM1RU6FWd8jb-52">
          <mxGeometry relative="1" as="geometry" />
        </mxCell>
        <mxCell id="E2VgF8O7wM1RU6FWd8jb-49" value="&lt;span style=&quot;font-size: 12px;&quot;&gt;处理并更新扩展表数据&lt;/span&gt;" style="whiteSpace=wrap;html=1;fontSize=8;fontFamily=Verdana;rounded=0;shadow=0;labelBackgroundColor=none;strokeWidth=1;" vertex="1" parent="E2VgF8O7wM1RU6FWd8jb-11">
          <mxGeometry x="30" y="160" width="100" height="60" as="geometry" />
        </mxCell>
        <mxCell id="E2VgF8O7wM1RU6FWd8jb-55" style="edgeStyle=orthogonalEdgeStyle;rounded=0;orthogonalLoop=1;jettySize=auto;html=1;exitX=0.5;exitY=1;exitDx=0;exitDy=0;entryX=0.5;entryY=0;entryDx=0;entryDy=0;" edge="1" parent="E2VgF8O7wM1RU6FWd8jb-11" source="E2VgF8O7wM1RU6FWd8jb-52" target="E2VgF8O7wM1RU6FWd8jb-54">
          <mxGeometry relative="1" as="geometry" />
        </mxCell>
        <mxCell id="E2VgF8O7wM1RU6FWd8jb-52" value="&lt;span style=&quot;font-size: 12px;&quot;&gt;更新工作票主记录&lt;/span&gt;" style="whiteSpace=wrap;html=1;fontSize=8;fontFamily=Verdana;rounded=0;shadow=0;labelBackgroundColor=none;strokeWidth=1;" vertex="1" parent="E2VgF8O7wM1RU6FWd8jb-11">
          <mxGeometry x="30" y="260" width="100" height="60" as="geometry" />
        </mxCell>
        <mxCell id="E2VgF8O7wM1RU6FWd8jb-54" value="&lt;span style=&quot;font-size: 12px;&quot;&gt;更新个性化字段表&lt;/span&gt;" style="whiteSpace=wrap;html=1;fontSize=8;fontFamily=Verdana;rounded=0;shadow=0;labelBackgroundColor=none;strokeWidth=1;" vertex="1" parent="E2VgF8O7wM1RU6FWd8jb-11">
          <mxGeometry x="30" y="360" width="100" height="60" as="geometry" />
        </mxCell>
        <mxCell id="E2VgF8O7wM1RU6FWd8jb-30" value="请求参数处理-2" style="swimlane;html=1;startSize=20;" vertex="1" parent="E2VgF8O7wM1RU6FWd8jb-1">
          <mxGeometry x="320" y="20" width="160" height="910" as="geometry" />
        </mxCell>
        <mxCell id="E2VgF8O7wM1RU6FWd8jb-31" style="edgeStyle=orthogonalEdgeStyle;rounded=0;orthogonalLoop=1;jettySize=auto;html=1;exitX=0.5;exitY=1;exitDx=0;exitDy=0;entryX=0.5;entryY=0;entryDx=0;entryDy=0;" edge="1" parent="E2VgF8O7wM1RU6FWd8jb-30" source="E2VgF8O7wM1RU6FWd8jb-32" target="E2VgF8O7wM1RU6FWd8jb-34">
          <mxGeometry relative="1" as="geometry" />
        </mxCell>
        <mxCell id="E2VgF8O7wM1RU6FWd8jb-32" value="&lt;span style=&quot;font-size: 12px;&quot;&gt;设置操作票实际操作步数&lt;/span&gt;" style="whiteSpace=wrap;html=1;fontSize=8;fontFamily=Verdana;rounded=0;shadow=0;labelBackgroundColor=none;strokeWidth=1;" vertex="1" parent="E2VgF8O7wM1RU6FWd8jb-30">
          <mxGeometry x="30" y="160" width="100" height="60" as="geometry" />
        </mxCell>
        <mxCell id="E2VgF8O7wM1RU6FWd8jb-33" style="edgeStyle=orthogonalEdgeStyle;rounded=0;orthogonalLoop=1;jettySize=auto;html=1;exitX=0.5;exitY=1;exitDx=0;exitDy=0;" edge="1" parent="E2VgF8O7wM1RU6FWd8jb-30" source="E2VgF8O7wM1RU6FWd8jb-34" target="E2VgF8O7wM1RU6FWd8jb-35">
          <mxGeometry relative="1" as="geometry" />
        </mxCell>
        <mxCell id="E2VgF8O7wM1RU6FWd8jb-34" value="&lt;span style=&quot;font-size: 12px;&quot;&gt;查询当前登录人信息&lt;/span&gt;&lt;div&gt;&lt;span style=&quot;font-size: 12px;&quot;&gt;设置操作票表修改人信息&lt;/span&gt;&lt;/div&gt;" style="whiteSpace=wrap;html=1;fontSize=8;fontFamily=Verdana;rounded=0;shadow=0;labelBackgroundColor=none;strokeWidth=1;" vertex="1" parent="E2VgF8O7wM1RU6FWd8jb-30">
          <mxGeometry x="30" y="260" width="100" height="60" as="geometry" />
        </mxCell>
        <mxCell id="E2VgF8O7wM1RU6FWd8jb-35" value="&lt;span style=&quot;font-size: 12px;&quot;&gt;设置操作票的开票来源&lt;/span&gt;" style="whiteSpace=wrap;html=1;fontSize=8;fontFamily=Verdana;rounded=0;shadow=0;labelBackgroundColor=none;strokeWidth=1;" vertex="1" parent="E2VgF8O7wM1RU6FWd8jb-30">
          <mxGeometry x="30" y="360" width="100" height="60" as="geometry" />
        </mxCell>
        <mxCell id="E2VgF8O7wM1RU6FWd8jb-36" value="修改操作票相关数据" style="swimlane;html=1;startSize=20;" vertex="1" parent="E2VgF8O7wM1RU6FWd8jb-1">
          <mxGeometry x="480" y="20" width="160" height="910" as="geometry" />
        </mxCell>
        <mxCell id="E2VgF8O7wM1RU6FWd8jb-37" value="" style="edgeStyle=orthogonalEdgeStyle;rounded=0;orthogonalLoop=1;jettySize=auto;html=1;entryX=0.5;entryY=0;entryDx=0;entryDy=0;" edge="1" parent="E2VgF8O7wM1RU6FWd8jb-36" source="E2VgF8O7wM1RU6FWd8jb-38">
          <mxGeometry relative="1" as="geometry">
            <mxPoint x="80" y="260" as="targetPoint" />
          </mxGeometry>
        </mxCell>
        <mxCell id="E2VgF8O7wM1RU6FWd8jb-38" value="&lt;span style=&quot;font-size: 12px;&quot;&gt;更新&lt;/span&gt;&lt;div&gt;&lt;span style=&quot;font-size: 12px;&quot;&gt;操作票主记录&lt;/span&gt;&lt;/div&gt;" style="whiteSpace=wrap;html=1;fontSize=8;fontFamily=Verdana;rounded=0;shadow=0;labelBackgroundColor=none;strokeWidth=1;" vertex="1" parent="E2VgF8O7wM1RU6FWd8jb-36">
          <mxGeometry x="30" y="160" width="100" height="60" as="geometry" />
        </mxCell>
        <mxCell id="E2VgF8O7wM1RU6FWd8jb-39" style="edgeStyle=orthogonalEdgeStyle;rounded=0;orthogonalLoop=1;jettySize=auto;html=1;exitX=0.5;exitY=1;exitDx=0;exitDy=0;entryX=0.5;entryY=0;entryDx=0;entryDy=0;" edge="1" parent="E2VgF8O7wM1RU6FWd8jb-36" source="E2VgF8O7wM1RU6FWd8jb-40" target="E2VgF8O7wM1RU6FWd8jb-42">
          <mxGeometry relative="1" as="geometry" />
        </mxCell>
        <mxCell id="E2VgF8O7wM1RU6FWd8jb-40" value="&lt;span style=&quot;font-size: 12px;&quot;&gt;删除旧的非图形化操作项&lt;/span&gt;&lt;div&gt;&lt;span style=&quot;font-size: 12px;&quot;&gt;插入新的&lt;/span&gt;&lt;span style=&quot;font-size: 12px; background-color: transparent; color: light-dark(rgb(0, 0, 0), rgb(255, 255, 255));&quot;&gt;非图形化操作项&lt;/span&gt;&lt;/div&gt;" style="whiteSpace=wrap;html=1;fontSize=8;fontFamily=Verdana;rounded=0;shadow=0;labelBackgroundColor=none;strokeWidth=1;" vertex="1" parent="E2VgF8O7wM1RU6FWd8jb-36">
          <mxGeometry x="30" y="260" width="100" height="60" as="geometry" />
        </mxCell>
        <mxCell id="E2VgF8O7wM1RU6FWd8jb-41" style="edgeStyle=orthogonalEdgeStyle;rounded=0;orthogonalLoop=1;jettySize=auto;html=1;exitX=0.5;exitY=1;exitDx=0;exitDy=0;entryX=0.5;entryY=0;entryDx=0;entryDy=0;" edge="1" parent="E2VgF8O7wM1RU6FWd8jb-36" source="E2VgF8O7wM1RU6FWd8jb-42" target="E2VgF8O7wM1RU6FWd8jb-44">
          <mxGeometry relative="1" as="geometry" />
        </mxCell>
        <mxCell id="E2VgF8O7wM1RU6FWd8jb-42" value="&lt;span style=&quot;font-size: 12px;&quot;&gt;删除旧的图形化操作项&lt;/span&gt;&lt;div&gt;&lt;span style=&quot;font-size: 12px;&quot;&gt;插入新的图形化操作项&lt;/span&gt;&lt;/div&gt;" style="whiteSpace=wrap;html=1;fontSize=8;fontFamily=Verdana;rounded=0;shadow=0;labelBackgroundColor=none;strokeWidth=1;" vertex="1" parent="E2VgF8O7wM1RU6FWd8jb-36">
          <mxGeometry x="30" y="360" width="100" height="60" as="geometry" />
        </mxCell>
        <mxCell id="E2VgF8O7wM1RU6FWd8jb-43" style="edgeStyle=orthogonalEdgeStyle;rounded=0;orthogonalLoop=1;jettySize=auto;html=1;exitX=0.5;exitY=1;exitDx=0;exitDy=0;" edge="1" parent="E2VgF8O7wM1RU6FWd8jb-36" source="E2VgF8O7wM1RU6FWd8jb-44" target="E2VgF8O7wM1RU6FWd8jb-45">
          <mxGeometry relative="1" as="geometry" />
        </mxCell>
        <mxCell id="E2VgF8O7wM1RU6FWd8jb-44" value="&lt;span style=&quot;font-size: 12px;&quot;&gt;删除已有的风险措施&lt;/span&gt;&lt;div&gt;&lt;span style=&quot;font-size: 12px;&quot;&gt;插入新的风险措施&lt;/span&gt;&lt;/div&gt;" style="whiteSpace=wrap;html=1;fontSize=8;fontFamily=Verdana;rounded=0;shadow=0;labelBackgroundColor=none;strokeWidth=1;" vertex="1" parent="E2VgF8O7wM1RU6FWd8jb-36">
          <mxGeometry x="30" y="464.5" width="100" height="60" as="geometry" />
        </mxCell>
        <mxCell id="E2VgF8O7wM1RU6FWd8jb-45" value="&lt;span style=&quot;font-size: 12px;&quot;&gt;成功返回&lt;/span&gt;" style="whiteSpace=wrap;html=1;fontSize=8;fontFamily=Verdana;rounded=0;shadow=0;labelBackgroundColor=none;strokeWidth=1;" vertex="1" parent="E2VgF8O7wM1RU6FWd8jb-36">
          <mxGeometry x="30" y="830" width="100" height="60" as="geometry" />
        </mxCell>
        <mxCell id="E2VgF8O7wM1RU6FWd8jb-50" style="edgeStyle=orthogonalEdgeStyle;rounded=0;orthogonalLoop=1;jettySize=auto;html=1;exitX=1;exitY=0.5;exitDx=0;exitDy=0;entryX=0.5;entryY=0;entryDx=0;entryDy=0;" edge="1" parent="E2VgF8O7wM1RU6FWd8jb-1" source="E2VgF8O7wM1RU6FWd8jb-10" target="E2VgF8O7wM1RU6FWd8jb-49">
          <mxGeometry relative="1" as="geometry">
            <Array as="points">
              <mxPoint x="150" y="318" />
              <mxPoint x="150" y="140" />
              <mxPoint x="240" y="140" />
            </Array>
          </mxGeometry>
        </mxCell>
        <mxCell id="E2VgF8O7wM1RU6FWd8jb-51" value="&lt;font style=&quot;font-size: 10px;&quot;&gt;否&lt;/font&gt;" style="edgeLabel;html=1;align=center;verticalAlign=middle;resizable=0;points=[];" vertex="1" connectable="0" parent="E2VgF8O7wM1RU6FWd8jb-50">
          <mxGeometry x="-0.9316" relative="1" as="geometry">
            <mxPoint as="offset" />
          </mxGeometry>
        </mxCell>
      </root>
    </mxGraphModel>
  </diagram>
</mxfile>
